<?xml version="1.0" encoding="utf-8"?>
<!-- Generator: Adobe Illustrator 15.1.0, SVG Export Plug-In . SVG Version: 6.00 Build 0)  -->
<!DOCTYPE svg PUBLIC "-//W3C//DTD SVG 1.1//EN" "http://www.w3.org/Graphics/SVG/1.1/DTD/svg11.dtd">
<svg version="1.1" id="Layer_1" xmlns="http://www.w3.org/2000/svg" xmlns:xlink="http://www.w3.org/1999/xlink" x="0px" y="0px"
	 width="650px" height="541.6px" viewBox="0 0 650 541.6" style="enable-background:new 0 0 650 541.6;" xml:space="preserve">
<g style="opacity:0.08;">
	<g>
		<defs>
			<rect id="SVGID_1_" x="-5.6" width="655.2" height="541.2"/>
		</defs>
		<clipPath id="SVGID_2_">
			<use xlink:href="#SVGID_1_"  style="overflow:visible;"/>
		</clipPath>
		<g style="clip-path:url(#SVGID_2_);">
			<defs>
				<rect id="SVGID_3_" x="9.2" y="1.7" width="625.7" height="537.8"/>
			</defs>
			<clipPath id="SVGID_4_">
				<use xlink:href="#SVGID_3_"  style="overflow:visible;"/>
			</clipPath>
			<path style="clip-path:url(#SVGID_4_);fill:#FFFFFF;" d="M397.9,1.7l5.2,115h-13.2c-2.5-20.3-6-34.7-10.4-43.4
				c-7.2-14-16.7-24.3-28.6-30.9c-11.9-6.6-27.5-9.9-46.9-9.9H238v374.7c0,30.1,3.1,49,9.3,56.4c8.8,10.1,22.3,15.2,40.5,15.2h16.3
				v13.4H105v-13.4h16.6c19.9,0,33.9-6.3,42.2-18.8c5.1-7.7,7.6-25.3,7.6-52.8V32.5h-56.4c-21.9,0-37.5,1.7-46.7,5.1
				c-12,4.6-22.3,13.4-30.8,26.4C29,77,23.9,94.5,22.3,116.7H9.2l5.5-115H397.9z"/>
			<path style="clip-path:url(#SVGID_4_);fill:#FFFFFF;" d="M304.9,220.2L478,400c28.4,29.7,52.6,49.9,72.7,60.6
				c20.1,10.7,40.2,16.8,60.2,18.3v13.4H387.7v-13.4c13.4,0,23-2.4,28.9-7.1c5.9-4.7,8.8-9.9,8.8-15.7c0-5.8-1.1-11-3.3-15.6
				c-2.2-4.6-9.4-13.1-21.6-25.7l-162-167.5v158.1c0,24.8,1.5,41.2,4.5,49.2c2.3,6,7.2,11.2,14.5,15.6c9.9,5.8,20.4,8.7,31.5,8.7
				h15.9v13.4H104.9v-13.4h16.6c19.4,0,33.5-5.9,42.2-17.7c5.5-7.7,8.3-26.3,8.3-55.7V88.5c0-24.8-1.5-41.3-4.5-49.5
				c-2.3-5.8-7-10.9-14.2-15.2c-10.2-5.8-20.8-8.7-31.9-8.7h-16.6V1.7h200.1v13.4H289c-10.9,0-21.3,2.8-31.5,8.3
				c-7.2,3.9-12.1,9.6-14.9,17.4c-2.8,7.7-4.2,23.6-4.2,47.7v150.1c4.6-4.6,20.4-19.9,47.4-45.9c68.5-65.6,110-109.4,124.3-131.3
				c6.2-9.6,9.3-18.1,9.3-25.3c0-5.5-2.4-10.4-7.3-14.6c-4.8-4.2-13-6.3-24.6-6.3h-10.7V1.7h172.4v13.4c-10.2,0.2-19.4,1.7-27.7,4.3
				c-8.3,2.7-18.5,7.8-30.5,15.4c-12,7.6-26.8,19.8-44.3,36.7c-5.1,4.8-28.5,29.5-70.3,74.2L304.9,220.2z"/>
		</g>
		<g style="clip-path:url(#SVGID_2_);">
			<defs>
				<rect id="SVGID_5_" x="9.2" y="1.7" width="625.7" height="537.8"/>
			</defs>
			<clipPath id="SVGID_6_">
				<use xlink:href="#SVGID_5_"  style="overflow:visible;"/>
			</clipPath>
			<g style="clip-path:url(#SVGID_6_);">
				<text transform="matrix(0.957 0 0 1 2121.1035 1394.1606)" style="font-family:'TimesNewRomanPSMT'; font-size:740.7797;">T</text>
			</g>
			<g style="clip-path:url(#SVGID_6_);">
				<text transform="matrix(0.957 0 0 1 2226.7383 1394.1606)" style="font-family:'TimesNewRomanPSMT'; font-size:740.7797;">K</text>
			</g>
		</g>
	</g>
</g>
</svg>